<?xml version="1.0" encoding="UTF-8"?>
<svg id="Ebene_1" xmlns="http://www.w3.org/2000/svg" version="1.1" viewBox="0 0 1024 1024">
  <!-- Generator: Adobe Illustrator 30.4.0, SVG Export Plug-In . SVG Version: 2.1.3 Build 103)  -->
  <defs>
    <style>
      .st0 {
        fill: #013944;
      }

      .st1 {
        fill: #57bdbc;
      }
    </style>
  </defs>
  <rect class="st0" x="-27.39" y="-47.47" width="1098.86" height="1205.36"/>
  <path class="st1" d="M555.7,846.04c3.95-60.79-13.35-122.2-32.37-146.48-18.74-23.92-41.32-36.05-67.11-36.05-4.17,0-8.46.33-12.76.98-17.38,2.61-105.4,34.39-130.59,45.75-6.29,2.84-13.39,4.27-21.11,4.27-18.55,0-39.51-8.12-58.99-22.88-20.11-15.22-36.36-35.93-45.75-58.31-11.16-26.6-22.04-79.21,30.5-132.71,15.22-15.5,18.26-33.08,21.48-51.7,1.82-10.52,3.7-21.39,7.87-32.6l1.11-2.98-3.01-1.04c-40.77-14.15-43.15-53.42-40.52-77,1.89-.42,3.71-.63,5.44-.63,8.9,0,14.4,5.6,18.82,10.1,2.17,2.21,4.04,4.11,6.09,5.12,2.08,1.02,5.75,1.65,9.58,1.65,5.07,0,21.94-1.31,26.09-18.15,16.04-65.21,50.74-74.2,85.86-74.2,2.78,0,5.81.05,9.54.17,2.9,0,3.41-1.46,7.41-12.83,4.96-14.1,14.19-40.35,24.86-50.94,3-3.12,6.14-4.61,9.63-4.61,14.46,0,32.81,25.18,44.12,46.75l1.15,2.19,2.4-.63c16.99-4.46,34.32-6.73,51.53-6.73,11.44,0,23.16,1,34.83,2.96l46.58,9.85c22,4.67,42.78,9.08,65.22,9.38.82.01,1.63.02,2.45.02,12.3,0,23.87-1.2,34.55-3.5-60.98-52.46-140.32-84.18-227.08-84.18-192.43,0-348.43,156-348.43,348.43s156,348.43,348.43,348.43c22.46,0,44.42-2.15,65.7-6.21l26.48-4.66v-7.01Z"/>
  <path class="st1" d="M376.97,514c-4.54,8.34-14.82,12.3-22.43,6.29-7.85-6.2-10-16.56-9.55-25.81.77-15.71,13.42-25.74,29.86-25.45,9.72.17,18.45-1.52,28-5.6-4.66,9.48-13.36,14.47-24.16,17.72,3.51,11.07,4.06,22.23-1.73,32.85Z"/>
  <path class="st1" d="M989.36,164.19c-1.13-1.99-4.24-5.82-6.64-5.01l-19.81,22.69c-16.06,13.94-33.16,25.5-51.93,35.29l-39.1,20.38-51.67,23.59-66.26,28.98c8.51-16.33,12.08-31.79,10.8-49.05-.96-12.88-2.91-25.16-11.24-36.01-18.75,34.89-60.86,47-99.87,46.47-23.53-.32-45.77-5.33-68.7-10.18l-42.56-9c-29.54-4.99-58.59-3.85-87.73,3.81-12.26-23.37-39.33-63-58.7-42.91-16.04,15.92-28.03,62.93-29.99,62.87-35.98-1.1-79.96.97-98.52,76.4-4.46,18.11-26.5,16.79-31.27,14.45-6.11-2.99-13.92-20.29-34.57-14.26-4.69,36.56,5.85,69.76,42.34,82.42-11.7,31.42-5.74,59.87-28.66,83.21-109.86,111.87,30.06,245.67,98.85,214.64,25.78-11.63,112.96-42.98,129.77-45.51,31.62-4.76,57.31,8.83,76.96,33.91,24.56,31.35,35.94,107.96,33.06,151.98l18.03-3.78c2.36-.49,4.04-2.56,4.06-4.97,0-.02,0-.04,0-.06v-.05s0,0,0,0c.32-61.75-20.39-135.07-43.39-161.42-20.25-23.2-39.3-33.39-70.62-35.66,11.45-16.56,18.98-37.43,18.52-58.5-21.22,49.54-48.94,69.9-100.34,82.9,16.11-20.56,26.67-50.62,4.73-68.5-1.22,12.18-22.03,68.22-70.11,86.12-73.75,27.46-172.92-87.59-88.98-172.42,31.67-32.01,23.72-52.17,35.84-96.94,37.77,3.54,73.36-11.61,98.54-39.39l17.02-22.98c6.84,5.15,12.27,9.95,20.89,11.35-4.49-9.32-9.67-17.39-12.61-27.58-10.8-37.46-7.9-77.77,8.38-113.07,3.71-8.06,7.66-15.05,14.32-21.02,6.37,2.29,10.75,7.05,14.8,12.29,29.25,37.85,42.39,92.01,26.37,139.74,51.19,4.66,94.47,36.4,114.02,82.93-22.49,37.05-26.15,81.41,2.94,113.18-11.19-44.84-5.1-76.27,20.04-113.86,35.35-52.87,91.29-92.38,148.5-119.41l68.15-32.21,93.96-43.41c24.1-11.13,46.27-23.73,67.79-39.09l14.28-11.8c1.37,23.57-5.24,45.05-16.31,65.26-27.6,50.4-79.66,85.4-132.42,106.49l-39.72,15.88-34.36,13.13c-28.21,10.78-55.4,22.21-81.78,36.91-23.46,13.07-51.78,34.47-61.83,60.93,15.24-17.4,34.07-31.54,55.67-41.88l32.29-15.46,41.44-16.25c-.74,12.36-4.99,23.73-11.9,34.12-18.54,27.9-45.57,43.91-73.01,61.56-25.03,16.1-40.32,49.84-24.61,77.34,7.38,12.92,102.73-9.84,125.92-19.88,49.4-21.37,70.69-62.23,71.24-97.13l34.42-24.01c31.09-25.91,52.35-64.61,49.84-106.2,28.64-20.24,53.17-45.13,69.56-76.54,16.04-30.74,22.59-76.3,5.86-105.83ZM344.97,374.64c-21.21,22.22-52.04,33.97-82.18,27.67-27.36-5.72-46.63-28.58-45.04-56.85,6.12,2.99,8.58,14.83,26.03,17.17,42.47-2.81,35.27-48.66,60.56-72.22,15.88-14.78,37.72-20.87,58.57-18.33l-1.48,17.13c.85,13.25,5.88,37.16,9.56,49.62-7.6,13.48-15.8,24.79-26.01,35.8ZM578.68,413.86c-24.84-38.23-62.55-61.82-106.46-70.9,1.33-4.88,4.16-8.82,7.41-13.08,20.59-4.04,47.06-3.94,67.74.51,16.84,3.99,70.37,25.15,84.24,28.08-18.54,17.38-38.49,35.64-52.93,55.4ZM704.55,313.67l-.66-.66.66-.66.66.66-.66.66ZM742.81,260.42c-3.03,43.84-63.95,64.69-86.27,77.51-59.63-9.33-109.74-48.33-179.56-28.16l-7.89-31.13h0l-7.06-24.14c39.68-11.29,76.83-6.48,115.67,3.1,23.06,5.69,45.53,10.1,69.26,11.63,34.1,1.79,70.15-3.52,98.12-24.93.39,5.81-.48,11.17-2.28,16.12,0,0,.01,0,.02,0ZM780.09,541.86c-35.4,30.34-81.79,38.78-138.33,43.91-7.56-22.68,12.41-45.3,31.44-58.53l20.51-14.26c25.09-2.08,49.28-5.71,73.76-11.77l41.19-13.41c-1.56,21.56-12.35,40.15-28.57,54.05ZM822.51,457.69c-30.05,15.42-61.74,26.65-97.86,30.63,20.96-20.78,34.92-45.07,37.31-73.67l59.46-20.41c23.75-8.78,46.21-18.21,68.77-30.61.09,42.4-32.16,74.27-67.68,94.06Z"/>
  <path class="st1" d="M648.87,887.03c0-8.48-8.66-14.23-16.46-10.89-90.16,38.59-192.94,44.86-288.26,14.57-81.69-25.95-151.59-74.24-202.14-139.63-48.92-63.28-77-137.34-81.2-214.18-2.56-46.72,2.22-89.81,14.59-131.72,12.82-43.42,32.88-83.96,59.62-120.48,26-35.51,57.7-66.42,94.22-91.89,36.41-25.39,76.6-44.65,119.45-57.26,43.84-12.89,89.36-18.47,135.29-16.58,75.89,3.12,150.07,27.13,214.53,69.42,22.36,14.67,45.35,34.96,66.42,55.91,0,0,.3-33.64-6.01-39.41-72.87-66.55-168.23-103.71-268.43-109.23-111.78-6.15-220.08,29.53-305,100.48-66.52,55.58-113.37,128.78-135.47,211.68-22.14,83.04-17.75,169.52,12.67,250.11,18.28,48.4,45.38,92.72,80.56,131.71,34.99,38.78,76.38,70.57,123.05,94.48,63.7,32.64,132,49.16,203.18,49.16,3.11,0,6.25-.03,9.37-.1,56.51-1.15,111.82-13.44,162.83-35.26,4.36-1.87,7.18-6.15,7.18-10.89h0Z"/>
</svg>